<svg width="24" height="24" viewBox="0 0 24 24" fill="none" xmlns="http://www.w3.org/2000/svg">
<g clip-path="url(#clip0_2026_5136)">
<path fill-rule="evenodd" clip-rule="evenodd" d="M11.9872 17.2476C6.90183 17.2476 2.7793 14.4867 2.7793 11.0809C2.7793 7.67502 6.90183 4.91406 11.9872 4.91406C17.0726 4.91406 21.1951 7.67502 21.1951 11.0809C21.1951 14.4867 17.0726 17.2476 11.9872 17.2476ZM13.3966 7.32507C9.53129 7.32507 6.39782 9.21258 6.39782 11.5409C6.39782 13.8693 9.53129 15.7568 13.3966 15.7568C17.2619 15.7568 20.1145 14.4664 20.1145 11.5409C20.1145 8.61643 17.2619 7.32507 13.3966 7.32507Z" fill="#F7F7F8"/>
<path fill-rule="evenodd" clip-rule="evenodd" d="M16.8029 14.4644C16.8029 14.4644 17.3602 14.6326 17.684 14.7964C17.7964 14.8533 17.9907 14.9667 18.1309 15.1157C18.2683 15.2615 18.3353 15.4094 18.3353 15.4094L20.5316 19.1125L16.9817 19.1141L15.3217 15.9968C15.3217 15.9968 14.9818 15.4127 14.7726 15.2434C14.5981 15.1021 14.5237 15.0518 14.3512 15.0518C14.2311 15.0518 13.5078 15.0518 13.5078 15.0518L13.5084 19.1118L10.3672 19.1131V8.74219H16.6752C16.6752 8.74219 19.5483 8.79401 19.5483 11.5275C19.5483 14.261 16.8029 14.4644 16.8029 14.4644ZM15.4366 10.9918L13.5349 10.9906L13.534 12.754L15.4366 12.7534C15.4366 12.7534 16.3177 12.7507 16.3177 11.8563C16.3177 10.9441 15.4366 10.9918 15.4366 10.9918Z" fill="#1E64B6"/>
</g>
<defs>
<clipPath id="clip0_2026_5136">
<rect width="18.49" height="14.3272" fill="white" transform="translate(2.75586 4.83594)"/>
</clipPath>
</defs>
</svg>
