<svg width="180" height="48" viewBox="0 0 180 48" fill="none" xmlns="http://www.w3.org/2000/svg">
<g clip-path="url(#clip0_2026_6292)">
<path d="M48.5724 33H48.7913L52.3639 31.2135L52.4233 31.1294V16.8695L52.3639 16.785L48.7913 15H48.5697L48.5724 33Z" fill="#5294CF"/>
<path d="M43.9232 33H43.7013L40.1317 31.2135L40.0593 31.0889L40.0225 16.9421L40.1317 16.785L43.7013 15H43.9259L43.9232 33Z" fill="#1F5B98"/>
<path d="M43.7076 15H48.7878V33H43.7076V15Z" fill="#2D72B8"/>
<path d="M54.2339 23.5956L54.1132 23.5688L52.3895 23.4081L52.3639 23.4209L48.7881 23.2778H43.7076L40.1317 23.4209V20.6941L40.128 20.6961L40.1317 20.6881L43.7076 19.8595H48.7881L52.3639 20.6881L53.6784 21.3868V20.9376L54.2339 20.8768L54.1764 20.7647L52.4175 19.5069L52.3639 19.5243L48.7881 18.4163H43.7076L40.1317 19.5243L40.1317 16.785L38.2617 18.9758V20.8891L38.2762 20.8786L38.8173 20.9376V21.3961L38.2617 21.6934V23.5971L38.2762 23.5956L38.8173 23.6036V24.4026L38.3504 24.4096L38.2617 24.4011V26.3056L38.8173 26.6044V27.0681L38.285 27.1269L38.2617 27.1094V29.0224L40.1317 31.2135L40.1317 28.4744L43.7076 29.5824H48.7881L52.3744 28.4712L52.4221 28.4921L54.1579 27.2529L54.2339 27.1294L53.6784 27.0681V26.6137L53.6056 26.5846L52.4175 27.225L52.3744 27.3149L48.7881 28.1386V28.1396H43.7076V28.1386L40.1317 27.3114V24.5747L43.7076 24.7172V24.7207H48.7881L52.3639 24.5747L52.4453 24.6121L54.1161 24.4682L54.2339 24.4106L53.6784 24.4026V23.6036L54.2339 23.5956Z" fill="#1A476F"/>
<path d="M52.3639 28.4744V31.2135L54.2339 29.0224V27.1219L52.3744 28.4712L52.3639 28.4744ZM52.3639 27.3174L52.3744 27.3149L54.2339 26.3149V24.4026L52.3639 24.5747V27.3174ZM52.3747 20.6906L52.3639 20.6881V23.4209L54.2339 23.5956V21.6843L52.3747 20.6906ZM52.3747 19.535L54.2339 20.8768V18.9763L52.3639 16.785V19.5243L52.3747 19.5281V19.535Z" fill="#2D72B8"/>
</g>
<path d="M65.2627 30.2041H61.2617V17.8359H65.3872C66.5991 17.8359 67.6423 18.085 68.5166 18.583C69.3965 19.0811 70.0716 19.7922 70.542 20.7163C71.0124 21.6349 71.2476 22.7306 71.2476 24.0034C71.2476 25.2817 71.0096 26.3857 70.5337 27.3154C70.0633 28.2396 69.3799 28.9535 68.4834 29.457C67.5924 29.9551 66.5189 30.2041 65.2627 30.2041ZM63.1045 28.6021H65.1465C66.5908 28.6021 67.6589 28.1953 68.3506 27.3818C69.0479 26.5684 69.3965 25.4422 69.3965 24.0034C69.3965 22.5701 69.0534 21.4523 68.3672 20.6499C67.681 19.842 66.6489 19.438 65.271 19.438H63.1045V28.6021Z" fill="#F7F7F8"/>
<path d="M73.0239 33.6738V32.1963H73.9702C74.2469 32.1963 74.471 32.116 74.6426 31.9556C74.8197 31.8006 74.9746 31.5433 75.1074 31.1836L75.5059 30.146L72.1191 21.4385H73.9951L75.7466 26.2446C75.8628 26.5711 75.9762 26.9004 76.0869 27.2324C76.1976 27.5589 76.3055 27.8854 76.4106 28.2119C76.5158 27.8854 76.6237 27.5589 76.7344 27.2324C76.8506 26.9004 76.9668 26.5711 77.083 26.2446L78.8096 21.4385H80.6606L76.6763 31.7397C76.1838 33.0291 75.3371 33.6738 74.1362 33.6738H73.0239Z" fill="#F7F7F8"/>
<path d="M83.6074 25.1572V30.2041H81.856V21.4385H83.5742V22.7583C84.1719 21.7622 85.0545 21.2642 86.2222 21.2642C86.8254 21.2642 87.3649 21.397 87.8408 21.6626C88.3223 21.9227 88.7013 22.3101 88.978 22.8247C89.2547 23.3394 89.3931 23.9785 89.3931 24.7422V30.2041H87.6416V24.958C87.6416 24.2552 87.4728 23.7267 87.1353 23.3726C86.7977 23.0129 86.3273 22.833 85.7241 22.833C85.1265 22.833 84.6229 23.0184 84.2134 23.3892C83.8094 23.7544 83.6074 24.3438 83.6074 25.1572Z" fill="#F7F7F8"/>
<path d="M94.0415 30.3452C93.1672 30.3452 92.4422 30.1239 91.8667 29.6812C91.2912 29.2329 91.0034 28.5716 91.0034 27.6973C91.0034 27.0332 91.1667 26.5241 91.4932 26.1699C91.8252 25.8102 92.2541 25.5529 92.7798 25.3979C93.311 25.243 93.8727 25.1296 94.4648 25.0576C95.0127 24.9912 95.4471 24.9359 95.7681 24.8916C96.089 24.8473 96.3159 24.7809 96.4487 24.6924C96.5871 24.6038 96.6562 24.4517 96.6562 24.2358V24.1611C96.6562 23.735 96.5013 23.3864 96.1914 23.1152C95.8815 22.8385 95.4471 22.7002 94.8882 22.7002C94.3293 22.7002 93.8727 22.8358 93.5186 23.1069C93.1644 23.3726 92.9707 23.7074 92.9375 24.1113H91.2192C91.258 23.2757 91.6094 22.5923 92.2734 22.061C92.9375 21.5298 93.8174 21.2642 94.9131 21.2642C95.9922 21.2642 96.8416 21.5298 97.4614 22.061C98.0812 22.5923 98.3911 23.3034 98.3911 24.1943V30.2041H96.6646V28.959H96.6313C96.4487 29.3132 96.1582 29.6341 95.7598 29.9219C95.3669 30.2041 94.7941 30.3452 94.0415 30.3452ZM94.3984 28.9341C95.1732 28.9341 95.7432 28.7349 96.1084 28.3364C96.4792 27.9325 96.6646 27.4621 96.6646 26.9253V25.896C96.5483 25.9901 96.2855 26.0758 95.876 26.1533C95.4665 26.2253 95.0293 26.2944 94.5645 26.3608C94.083 26.4328 93.6597 26.5684 93.2944 26.7676C92.9292 26.9668 92.7466 27.2878 92.7466 27.7305C92.7466 28.1068 92.8932 28.4028 93.1865 28.6187C93.4854 28.8289 93.8893 28.9341 94.3984 28.9341Z" fill="#F7F7F8"/>
<path d="M100.367 30.2041V21.4385H102.068V22.9077C102.34 22.3654 102.708 21.9559 103.172 21.6792C103.637 21.4025 104.141 21.2642 104.683 21.2642C105.281 21.2642 105.804 21.4163 106.252 21.7207C106.706 22.0251 107.024 22.4124 107.207 22.8828C107.444 22.4069 107.804 22.0195 108.286 21.7207C108.773 21.4163 109.34 21.2642 109.987 21.2642C110.53 21.2642 111.022 21.3831 111.465 21.6211C111.908 21.859 112.259 22.2132 112.519 22.6836C112.779 23.1484 112.909 23.7323 112.909 24.4351V30.2041H111.149V24.5845C111.149 23.9591 110.975 23.5054 110.626 23.2231C110.278 22.9409 109.866 22.7998 109.39 22.7998C108.803 22.7998 108.341 22.9824 108.003 23.3477C107.666 23.7074 107.497 24.1667 107.497 24.7256V30.2041H105.771V24.4683C105.771 23.9647 105.607 23.5607 105.281 23.2563C104.96 22.952 104.55 22.7998 104.052 22.7998C103.543 22.7998 103.092 22.9797 102.699 23.3394C102.312 23.6991 102.118 24.2248 102.118 24.9165V30.2041H100.367Z" fill="#F7F7F8"/>
<path d="M118.662 30.4033C117.826 30.4033 117.093 30.2096 116.462 29.8223C115.831 29.4349 115.339 28.8981 114.984 28.2119C114.636 27.5257 114.461 26.7344 114.461 25.8379C114.461 24.9303 114.636 24.1335 114.984 23.4473C115.339 22.7555 115.831 22.216 116.462 21.8286C117.093 21.4357 117.826 21.2393 118.662 21.2393C119.497 21.2393 120.228 21.4357 120.853 21.8286C121.484 22.216 121.974 22.7555 122.322 23.4473C122.676 24.1335 122.854 24.9303 122.854 25.8379C122.854 26.7344 122.676 27.5257 122.322 28.2119C121.974 28.8981 121.484 29.4349 120.853 29.8223C120.228 30.2096 119.497 30.4033 118.662 30.4033ZM118.662 28.8926C119.414 28.8926 120.006 28.6159 120.438 28.0625C120.87 27.5091 121.085 26.7676 121.085 25.8379C121.085 24.8971 120.867 24.1473 120.43 23.5884C119.998 23.0295 119.409 22.75 118.662 22.75C117.915 22.75 117.322 23.0295 116.885 23.5884C116.454 24.1418 116.238 24.8916 116.238 25.8379C116.238 26.7731 116.454 27.5174 116.885 28.0708C117.317 28.6187 117.909 28.8926 118.662 28.8926Z" fill="#F7F7F8"/>
<path d="M128.548 30.2041H124.547V17.8359H128.672C129.884 17.8359 130.927 18.085 131.802 18.583C132.682 19.0811 133.357 19.7922 133.827 20.7163C134.298 21.6349 134.533 22.7306 134.533 24.0034C134.533 25.2817 134.295 26.3857 133.819 27.3154C133.348 28.2396 132.665 28.9535 131.769 29.457C130.878 29.9551 129.804 30.2041 128.548 30.2041ZM126.39 28.6021H128.432C129.876 28.6021 130.944 28.1953 131.636 27.3818C132.333 26.5684 132.682 25.4422 132.682 24.0034C132.682 22.5701 132.339 21.4523 131.652 20.6499C130.966 19.842 129.934 19.438 128.556 19.438H126.39V28.6021Z" fill="#F7F7F8"/>
<path d="M136.334 30.2041V17.8359H140.958C142.23 17.8359 143.221 18.132 143.929 18.7241C144.643 19.3107 145 20.0993 145 21.0898C145 21.7982 144.815 22.3737 144.444 22.8164C144.079 23.2591 143.572 23.5801 142.925 23.7793V23.7959C143.644 23.8955 144.25 24.1888 144.743 24.6758C145.241 25.1628 145.49 25.8462 145.49 26.7261C145.49 27.7775 145.122 28.6214 144.386 29.2578C143.655 29.8887 142.56 30.2041 141.099 30.2041H136.334ZM138.16 28.6519H140.982C141.824 28.6519 142.471 28.4886 142.925 28.1621C143.384 27.8301 143.614 27.3486 143.614 26.7178C143.614 26.0924 143.39 25.5972 142.941 25.2319C142.499 24.8667 141.868 24.6841 141.049 24.6841H138.16V28.6519ZM138.16 23.165H140.933C141.635 23.165 142.183 22.9963 142.576 22.6587C142.975 22.3211 143.174 21.8618 143.174 21.2808C143.174 20.6997 142.975 20.2404 142.576 19.9028C142.183 19.5597 141.635 19.3882 140.933 19.3882H138.16V23.165Z" fill="#F7F7F8"/>
<defs>
<clipPath id="clip0_2026_6292">
<rect width="17" height="18" fill="white" transform="translate(37.6016 15)"/>
</clipPath>
</defs>
</svg>
