<svg width="178" height="48" viewBox="0 0 178 48" fill="none" xmlns="http://www.w3.org/2000/svg">
<path d="M82.8605 30.2349H82.8324C82.8324 30.2349 82.8324 30.263 82.8605 30.2349ZM82.8605 30.263C82.7198 30.263 82.3539 30.3475 81.9598 30.3475C80.7213 30.3475 80.2991 29.7845 80.2991 29.0527V24.1268H82.8042C82.945 24.1268 83.0576 24.0142 83.0576 23.8172V21.1432C83.0576 21.0024 82.945 20.8899 82.8042 20.8899H80.2991V17.5684C80.2991 17.4558 80.2146 17.3714 80.0739 17.3714H76.6962C76.5554 17.3714 76.471 17.4558 76.471 17.5684V20.9743C76.471 20.9743 74.754 21.3965 74.6414 21.4247C74.5288 21.4528 74.4444 21.5654 74.4444 21.678V23.8172C74.4444 23.9861 74.557 24.1268 74.6977 24.1268H76.4429V29.2779C76.4429 33.1059 79.1169 33.5 80.9465 33.5C81.7909 33.5 82.7761 33.2467 82.945 33.1622C83.0294 33.1341 83.0857 33.0215 83.0857 32.9089V30.5445C83.0857 30.4038 82.9731 30.2912 82.8605 30.263ZM120.044 26.8009C120.044 23.9579 118.889 23.592 117.679 23.7046C116.75 23.7609 115.99 24.2394 115.99 24.2394V29.7564C115.99 29.7564 116.75 30.2912 117.904 30.3193C119.537 30.3756 120.044 29.8127 120.044 26.8009ZM123.872 26.5475C123.872 31.9237 122.126 33.4719 119.087 33.4719C116.525 33.4719 115.118 32.1771 115.118 32.1771C115.118 32.1771 115.061 32.9089 114.977 32.9933C114.921 33.0778 114.864 33.1059 114.752 33.1059H112.416C112.247 33.1059 112.106 32.9933 112.106 32.8526L112.134 15.4011C112.134 15.2603 112.247 15.1477 112.387 15.1477H115.737C115.878 15.1477 115.99 15.2603 115.99 15.4011L115.962 21.2839C115.962 21.2839 117.257 20.4395 119.143 20.4395H119.171C121.085 20.4676 123.872 21.1713 123.872 26.5475ZM110.192 20.8899H106.899C106.73 20.8899 106.645 21.0024 106.645 21.1995V29.7282C106.645 29.7282 105.773 30.3475 104.59 30.3475C103.408 30.3475 103.071 29.8127 103.071 28.6305V21.1713C103.071 21.0306 102.958 20.918 102.817 20.918H99.4676C99.3269 20.918 99.2143 21.0306 99.2143 21.1713V29.1934C99.2143 32.6556 101.156 33.5 103.802 33.5C105.998 33.5 107.771 32.2897 107.771 32.2897C107.771 32.2897 107.856 32.9089 107.884 32.9933C107.912 33.0778 108.025 33.1341 108.137 33.1341H110.248C110.417 33.1341 110.501 33.0215 110.501 32.8808L110.53 21.1432C110.473 21.0024 110.361 20.8899 110.192 20.8899ZM72.9807 20.8617H69.6311C69.4904 20.8617 69.3778 21.0024 69.3778 21.1713V32.6837C69.3778 32.9933 69.5748 33.1059 69.8563 33.1059H72.8681C73.1777 33.1059 73.2622 32.9652 73.2622 32.6837V21.1432C73.234 21.0024 73.1214 20.8617 72.9807 20.8617ZM71.32 15.57C70.1096 15.57 69.1526 16.527 69.1526 17.7373C69.1526 18.9477 70.1096 19.9047 71.32 19.9047C72.5022 19.9047 73.4592 18.9477 73.4592 17.7373C73.4592 16.527 72.5022 15.57 71.32 15.57ZM97.2158 15.1759H93.8944C93.7537 15.1759 93.6411 15.2885 93.6411 15.4292V21.8469H88.4338V15.4292C88.4338 15.2885 88.3212 15.1759 88.1804 15.1759H84.8309C84.6901 15.1759 84.5775 15.2885 84.5775 15.4292V32.8808C84.5775 33.0215 84.7183 33.1341 84.8309 33.1341H88.1804C88.3212 33.1341 88.4338 33.0215 88.4338 32.8808V25.4216H93.6411L93.6129 32.8808C93.6129 33.0215 93.7255 33.1341 93.8662 33.1341H97.2158C97.3565 33.1341 97.4691 33.0215 97.4691 32.8808V15.4292C97.4691 15.2885 97.3565 15.1759 97.2158 15.1759ZM67.5763 22.8883V31.8956C67.5763 31.9519 67.5482 32.0645 67.4919 32.0926C67.4919 32.0926 65.5216 33.5 62.2846 33.5C58.4002 33.5 53.7559 32.2897 53.7559 24.2113C53.7559 16.1611 57.8091 14.4722 61.7498 14.5003C65.1838 14.5003 66.563 15.2603 66.7601 15.4011C66.8164 15.4855 66.8445 15.5418 66.8445 15.6262L66.1971 18.4129C66.1971 18.5536 66.0564 18.7225 65.8875 18.6662C65.3245 18.4973 64.4801 18.1595 62.4816 18.1595C60.1735 18.1595 57.6965 18.8069 57.6965 24.0142C57.6965 29.2216 60.0609 29.8127 61.7498 29.8127C63.1853 29.8127 63.7201 29.6438 63.7201 29.6438V26.069H61.412C61.2431 26.069 61.1024 25.9564 61.1024 25.8157V22.8883C61.1024 22.7476 61.215 22.635 61.412 22.635H67.2949C67.4638 22.635 67.5763 22.7476 67.5763 22.8883Z" fill="#F7F7F8"/>
</svg>
